<svg xmlns="http://www.w3.org/2000/svg" viewBox="0 0 60.469 60.469"><defs><style>.cls-1{fill:#6200ee;}.cls-2,.cls-3{fill-rule:evenodd;}.cls-3{fill:#fff;}</style></defs><title>be</title><g id="Layer_2" data-name="Layer 2"><g id="Layer_34" data-name="Layer 34"><g id="Behance"><g id="back"><circle cx="30.469" cy="30.469" r="30"/><circle class="cls-1" cx="30" cy="30" r="30"/></g><g id="Behance-2" data-name="Behance"><path class="cls-2" d="M23.237,31.626H17.861V37.3h5.292c1.819,0,3.261-.58,3.261-2.724C26.414,32.473,25.2,31.626,23.237,31.626Zm-.69-8.257H17.861V28.2H22.9c1.6,0,2.795-.72,2.795-2.455C25.694,23.764,24.183,23.369,22.547,23.369Zm8.58,11.291c0,4.193-3.6,5.985-7.353,5.985h-10.1V19.883h9.81c3.964,0,6.66,1.4,6.66,5.25a4.542,4.542,0,0,1-2.835,4.3A5.038,5.038,0,0,1,31.127,34.66Zm4.94-13.379h8.354v2.78H36.067Zm3.74,7.113c-2.626,0-3.388,1.468-3.444,2.61h6.746C42.729,28.93,41.826,28.394,39.807,28.394ZM36.363,33.7c.113,2.6,1.4,4.262,3.7,4.262a3.953,3.953,0,0,0,3.458-2.286h3.641a7.269,7.269,0,0,1-7.241,5.378c-4.756,0-7.749-3.234-7.749-7.863A7.571,7.571,0,0,1,39.92,25.3c5.139,0,7.622,3.8,7.325,8.4Z"/><path class="cls-3" d="M22.769,31.158H17.392v5.673h5.293c1.819,0,3.26-.579,3.26-2.724C25.945,32,24.731,31.158,22.769,31.158ZM22.078,22.9H17.392v4.826H22.43c1.6,0,2.8-.72,2.8-2.455C25.226,23.3,23.715,22.9,22.078,22.9Zm8.58,11.29c0,4.193-3.6,5.985-7.353,5.985H13.2V19.414h9.81c3.964,0,6.66,1.4,6.66,5.251a4.541,4.541,0,0,1-2.835,4.3A5.038,5.038,0,0,1,30.658,34.191ZM35.6,20.812h8.355v2.78H35.6Zm3.74,7.113c-2.625,0-3.388,1.468-3.444,2.611h6.747C42.26,28.462,41.357,27.925,39.338,27.925Zm-3.444,5.308c.113,2.6,1.4,4.262,3.7,4.262a3.952,3.952,0,0,0,3.458-2.287h3.641a7.268,7.268,0,0,1-7.241,5.378c-4.755,0-7.749-3.233-7.749-7.862a7.571,7.571,0,0,1,7.749-7.89c5.139,0,7.622,3.8,7.325,8.4Z"/></g></g></g></g></svg>