<svg xmlns="http://www.w3.org/2000/svg" viewBox="0 0 587 587" id="BkfY12C-7" height="587" width="587"><style>@-webkit-keyframes HkbzKk3AbX_SkVq1n0Wm_Animation{
0%{-webkit-transform: scale(0.1, 0.1);transform: scale(0.1, 0.1);}
100%{-webkit-transform: scale(2, 2);transform: scale(2, 2);}}
@keyframes HkbzKk3AbX_SkVq1n0Wm_Animation{
0%{-webkit-transform: scale(0.1, 0.1);transform: scale(0.1, 0.1);}
100%{-webkit-transform: scale(2, 2);transform: scale(2, 2);}}
#BkfY12C-7 *{-webkit-animation-duration: 1s;animation-duration: 1s;-webkit-animation-play-state: paused;animation-play-state: paused;-webkit-animation-timing-function: cubic-bezier(0, 0, 1, 1);animation-timing-function: cubic-bezier(0, 0, 1, 1);}
#BJffFk3A-m{fill: #6200ee;}
#HkbzKk3AbX_SkVq1n0Wm{-webkit-animation-name: HkbzKk3AbX_SkVq1n0Wm_Animation;animation-name: HkbzKk3AbX_SkVq1n0Wm_Animation;-webkit-transform-origin: 50% 50%;transform-origin: 50% 50%;transform-box: fill-box;-webkit-transform: scale(2, 2);transform: scale(2, 2);}
#BkfY12C-7:hover *{-webkit-animation-play-state: running;animation-play-state: running;}</style><defs/><title>circle</title><g id="ryefKyn0W7" data-name="Layer 2"><g id="HkbzKk3AbX_SkVq1n0Wm" data-animator-group="true" data-animator-type="2"><g id="HkbzKk3AbX" data-name="Layer 1"><path d="M293.5,586.5A293,293,0,0,1,86.318,86.318,293,293,0,0,1,500.683,500.683,291.088,291.088,0,0,1,293.5,586.5Z" id="BJffFk3A-m"/><path d="M293.5,1A292.577,292.577,0,0,1,407.354,563.014,292.576,292.576,0,0,1,179.646,23.986,290.67,290.67,0,0,1,293.5,1m0-1C131.4,0,0,131.4,0,293.5S131.4,587,293.5,587,587,455.6,587,293.5,455.6,0,293.5,0Z" id="ByXztJnR-X"/></g></g></g><script>(function(){var a=document.querySelector('#BkfY12C-7'),b=a.querySelectorAll('style'),c=function(d){b.forEach(function(f){var g=f.textContent;g&amp;&amp;(f.textContent=g.replace(/transform-box:[^;\r\n]*/gi,'transform-box: '+d))})};c('initial'),window.requestAnimationFrame(function(){return c('fill-box')})})();</script></svg>