<svg xmlns="http://www.w3.org/2000/svg" viewBox="0 0 447 158" id="B1hEZy6xQ"><style>@-webkit-keyframes HJYgpEWJTxm_SJyIZ16xQ_Animation{0%{-webkit-transform: rotate(0deg);transform: rotate(0deg);}100%{-webkit-transform: rotate(360deg);transform: rotate(360deg);}}@keyframes HJYgpEWJTxm_SJyIZ16xQ_Animation{0%{-webkit-transform: rotate(0deg);transform: rotate(0deg);}100%{-webkit-transform: rotate(360deg);transform: rotate(360deg);}}@-webkit-keyframes H1Nl64-yagm_ByKv-k6gm_Animation{0%{-webkit-transform: rotate(0deg);transform: rotate(0deg);}100%{-webkit-transform: rotate(-360deg);transform: rotate(-360deg);}}@keyframes H1Nl64-yagm_ByKv-k6gm_Animation{0%{-webkit-transform: rotate(0deg);transform: rotate(0deg);}100%{-webkit-transform: rotate(-360deg);transform: rotate(-360deg);}}@-webkit-keyframes Bk7eT4bypg7_Animation{0%{opacity: 0.2;}100%{opacity: 1;}}@keyframes Bk7eT4bypg7_Animation{0%{opacity: 0.2;}100%{opacity: 1;}}@-webkit-keyframes Bk7eT4bypg7_By37Myae7_Animation{0%{-webkit-transform: translate(0px, 0px);transform: translate(0px, 0px);}100%{-webkit-transform: translate(0px, -5px);transform: translate(0px, -5px);}}@keyframes Bk7eT4bypg7_By37Myae7_Animation{0%{-webkit-transform: translate(0px, 0px);transform: translate(0px, 0px);}100%{-webkit-transform: translate(0px, -5px);transform: translate(0px, -5px);}}@-webkit-keyframes r1zxaVZJTlQ_Animation{0%{opacity: 0.2;}100%{opacity: 1;}}@keyframes r1zxaVZJTlQ_Animation{0%{opacity: 0.2;}100%{opacity: 1;}}@-webkit-keyframes r1zxaVZJTlQ_BkdlX1px7_Animation{0%{-webkit-transform: translate(0px, 0px);transform: translate(0px, 0px);}100%{-webkit-transform: translate(0px, -5px);transform: translate(0px, -5px);}}@keyframes r1zxaVZJTlQ_BkdlX1px7_Animation{0%{-webkit-transform: translate(0px, 0px);transform: translate(0px, 0px);}100%{-webkit-transform: translate(0px, -5px);transform: translate(0px, -5px);}}@-webkit-keyframes BJbx64bJpxQ_Animation{0%{opacity: 0.2;}100%{opacity: 1;}}@keyframes BJbx64bJpxQ_Animation{0%{opacity: 0.2;}100%{opacity: 1;}}@-webkit-keyframes BJbx64bJpxQ_SkAMm1axX_Animation{0%{-webkit-transform: translate(0px, 0px);transform: translate(0px, 0px);}100%{-webkit-transform: translate(0px, -5px);transform: translate(0px, -5px);}}@keyframes BJbx64bJpxQ_SkAMm1axX_Animation{0%{-webkit-transform: translate(0px, 0px);transform: translate(0px, 0px);}100%{-webkit-transform: translate(0px, -5px);transform: translate(0px, -5px);}}#B1hEZy6xQ *{-webkit-animation-duration: 3s;animation-duration: 3s;-webkit-animation-iteration-count: infinite;animation-iteration-count: infinite;-webkit-animation-timing-function: cubic-bezier(0, 0, 1, 1);animation-timing-function: cubic-bezier(0, 0, 1, 1);}#rJfhEZJ6eQ{fill: #fff;}#rkXn4by6eX{fill: none;stroke-miterlimit: 10;stroke: #6200ee;stroke-width: 3.41px;}#SyE2V-1pem{fill: #7819ff;}#H1Hh4bJax7{fill: #7819ff;}#SkU34Wkplm{fill: #4200a1;}#HyD3EWJpx7{fill: #4200a1;}#By_2Nbkag7{fill: #4200a1;}#Syt24-1ax7{fill: #4200a1;}#Hy9nEWJ6eQ{fill: #4200a1;}#S1j2EWyTxQ{fill: #4200a1;}#S133VZkTgX{fill: #4200a1;}#B1anE-JTx7{opacity: 0.32;}#rkkx2Vb1al7{fill: #7819ff;}#rkxgnV-JagX{fill: #fff;}#H1-e34-kTl7{fill: none;stroke-miterlimit: 10;stroke: #6200ee;stroke-width: 5.396px;}#rJzg3VbJplQ{fill: #7819ff;}#SyXxhN-1TlX{fill: #7819ff;}#BJVl3VZJalX{fill: #7819ff;}#SkrehVZkaem{fill: #4200a1;}#H1Ll2N-JTxm{fill: #4200a1;}#BkDg2NZJalQ{fill: #4200a1;}#S1dlhE-kag7{fill: #6200ee;}#BkFx3EZkpeQ{fill: #4200a1;}#By5e3NZ1aeQ{fill: #fff;}#BkjlnEbk6xX{fill: none;stroke-miterlimit: 10;stroke: #7819ff;stroke-width: 3.8px;}#BJ3x3E-k6gX{fill: #7819ff;}#ryaxnVW1plQ{fill: #7819ff;}#rJAlhEWk6e7{fill: #4200a1;}#HJJZhVZkpxm{fill: #4200a1;}#Byx-2VWyTxm{fill: #4200a1;}#BJbWn4-1TgQ{fill: #4200a1;}#Syzb24-J6eX{fill: #fff;}#r1m-3EZyal7{fill: #4200a1;}#HkNWnNWk6g7{fill: #7819ff;}#ryaVZkTlX{fill: #7819ff;}#SklpEbkTxX{fill: #7819ff;}#SyWpNbk6gX{fill: #7819ff;}#BJfp4-yag7{fill: #7819ff;}#HJmaVZJpxQ{fill: #4200a1;-webkit-transform:  translate(217.249px, 254.721px) rotate(180deg);transform:  translate(217.249px, 254.721px) rotate(180deg);}#HkEaN-JalX{fill: #4200a1;-webkit-transform:  translate(217.249px, 293.344px) rotate(180deg);transform:  translate(217.249px, 293.344px) rotate(180deg);}#HJSaVbJplX{fill: #4200a1;-webkit-transform:  translate(217.249px, 286.203px) rotate(180deg);transform:  translate(217.249px, 286.203px) rotate(180deg);}#rJIaE-1peX{fill: none;stroke-miterlimit: 10;stroke: #4200a1;stroke-width: 2.542px;}#B1wpNWk6lX{opacity: 0.21;}#rJs64-ypl7{opacity: 0.2;}#Hk3T4bJaxX{opacity: 0.2;}#rya6NbyTlQ{opacity: 0.2;}#S1RpV-kTxQ{fill: #7819ff;}#HyygTNWJal7{fill: #4b0eaa;}#H1lx6NbJ6xX{fill: #7819ff;}#BJbx64bJpxQ{fill: #7819ff;opacity: 0.2;-webkit-animation-name: BJbx64bJpxQ_Animation;animation-name: BJbx64bJpxQ_Animation;-webkit-transform-origin: 50% 50%;transform-origin: 50% 50%;transform-box: fill-box;}#r1zxaVZJTlQ{fill: #7819ff;opacity: 0.2;-webkit-animation-name: r1zxaVZJTlQ_Animation;animation-name: r1zxaVZJTlQ_Animation;-webkit-transform-origin: 50% 50%;transform-origin: 50% 50%;transform-box: fill-box;}#Bk7eT4bypg7{fill: #7819ff;opacity: 0.2;-webkit-animation-name: Bk7eT4bypg7_Animation;animation-name: Bk7eT4bypg7_Animation;-webkit-transform-origin: 50% 50%;transform-origin: 50% 50%;transform-box: fill-box;}#rkHgpNbJTgm{opacity: 0.62;}#SkUlTEZJTgQ{fill: none;stroke-miterlimit: 10;stroke: #000;stroke-width: 1.267px;}#ByDeaNb16gm{fill: none;stroke-miterlimit: 10;stroke: #7819ff;stroke-width: 1.267px;}#HkOep4bk6gQ{fill: #7819ff;font-size: 25.335px;font-family: Roboto-Bold, Roboto;font-weight: 700;-webkit-transform:  translate(4.67px, 38.596px);transform:  translate(4.67px, 38.596px);}#HJcgaV-kTgX{opacity: 0.62;}#HJig64-1peQ{fill: none;stroke-miterlimit: 10;stroke: #000;stroke-width: 1.267px;}#SJ2gaNWyTeQ{fill: none;stroke-miterlimit: 10;stroke: #7819ff;stroke-width: 1.267px;}#Skax64bJTe7{fill: none;stroke-miterlimit: 10;stroke: #7819ff;stroke-width: 1.267px;}#SJAl6EZy6gQ{fill: none;stroke-miterlimit: 10;stroke: #7819ff;stroke-width: 1.267px;}#B11W6NZyaeX{fill: #7819ff;}#BJbx64bJpxQ_SkAMm1axX{-webkit-animation-name: BJbx64bJpxQ_SkAMm1axX_Animation;animation-name: BJbx64bJpxQ_SkAMm1axX_Animation;-webkit-transform-origin: 50% 50%;transform-origin: 50% 50%;transform-box: fill-box;}#r1zxaVZJTlQ_BkdlX1px7{-webkit-animation-name: r1zxaVZJTlQ_BkdlX1px7_Animation;animation-name: r1zxaVZJTlQ_BkdlX1px7_Animation;-webkit-transform-origin: 50% 50%;transform-origin: 50% 50%;transform-box: fill-box;}#Bk7eT4bypg7_By37Myae7{-webkit-animation-name: Bk7eT4bypg7_By37Myae7_Animation;animation-name: Bk7eT4bypg7_By37Myae7_Animation;-webkit-transform-origin: 50% 50%;transform-origin: 50% 50%;transform-box: fill-box;}#H1Nl64-yagm_ByKv-k6gm{-webkit-animation-name: H1Nl64-yagm_ByKv-k6gm_Animation;animation-name: H1Nl64-yagm_ByKv-k6gm_Animation;-webkit-transform-origin: 50% 50%;transform-origin: 50% 50%;transform-box: fill-box;}#HJYgpEWJTxm_SJyIZ16xQ{-webkit-animation-name: HJYgpEWJTxm_SJyIZ16xQ_Animation;animation-name: HJYgpEWJTxm_SJyIZ16xQ_Animation;-webkit-transform-origin: 50% 50%;transform-origin: 50% 50%;transform-box: fill-box;}</style><defs/><title>deskAnimated2</title><g id="B1enVZ16l7" data-name="Layer 2"><g id="r1-24-16xX" data-name="Layer 40"><path id="rJfhEZJ6eQ" data-name="&lt;Rectangle&gt;" d="M276.111,68.587H373.63a6.164,6.164,0,0,1,6.164,6.164v67.464a6.164,6.164,0,0,1-6.164,6.164H266.151a6.164,6.164,0,0,1-6.164-6.164v-57.5A16.123,16.123,0,0,1,276.111,68.587Z"/><path id="rkXn4by6eX" data-name="&lt;Rectangle&gt;" d="M271.283,69.85H373.7a5.391,5.391,0,0,1,5.391,5.391v69.294a5.106,5.106,0,0,1-5.106,5.106H262.206a2.924,2.924,0,0,1-2.924-2.924V81.85A12,12,0,0,1,271.283,69.85Z"/><rect x="267.035" y="77.172" width="32.418" height="14.645" id="SyE2V-1pem"/><rect x="303.212" y="77.172" width="69.065" height="14.645" id="H1Hh4bJax7"/><rect x="266.565" y="113.533" width="33.358" height="3.535" id="SkU34Wkplm"/><rect x="302.742" y="113.533" width="33.358" height="3.535" id="HyD3EWJpx7"/><rect x="302.742" y="120.603" width="33.358" height="3.535" id="By_2Nbkag7"/><rect x="302.742" y="127.673" width="33.358" height="3.535" id="Syt24-1ax7"/><rect x="266.095" y="134.743" width="105.712" height="3.535" id="Hy9nEWJ6eQ"/><rect x="266.095" y="127.673" width="33.358" height="3.535" id="S1j2EWyTxQ"/><rect x="266.095" y="120.603" width="33.358" height="3.535" id="S133VZkTgX"/><g id="B1anE-JTx7"><path d="M241.1,153.535l4.643,4.676H391.994l6.191-4.676S241.539,153.98,241.1,153.535Z" id="HJA2Ebk6gX"/></g><path d="M241.1,152.758l4.643,4.676H391.994l6.191-4.676S241.539,153.2,241.1,152.758Z" id="rkkx2Vb1al7"/><rect id="rkxgnV-JagX" data-name="&lt;Rectangle&gt;" x="98.572" y="0.778" width="197.326" height="121.332" rx="12" ry="12"/><rect id="H1-e34-kTl7" data-name="&lt;Rectangle&gt;" x="97.411" y="2.698" width="197.326" height="121.332" rx="12" ry="12"/><rect x="110.179" y="13.833" width="53.394" height="3.835" id="rJzg3VbJplQ"/><rect x="109.405" y="41.478" width="174.112" height="4.481" id="SyXxhN-1TlX"/><rect x="169.764" y="13.833" width="113.753" height="3.835" id="BJVl3VZJalX"/><rect x="108.561" y="69.968" width="54.942" height="5.375" id="SkrehVZkaem"/><rect x="108.632" y="92.509" width="174.112" height="5.375" id="H1Ll2N-JTxm"/><rect x="171.547" y="69.935" width="111.785" height="5.375" id="BkDg2NZJalQ"/><rect x="174.407" y="126.717" width="44.882" height="25.341" id="S1dlhE-kag7"/><rect x="162.8" y="152.059" width="68.097" height="5.375" id="BkFx3EZkpeQ"/><rect x="39.015" y="70.946" width="60.359" height="86.669" rx="9.652" ry="9.652" id="By5e3NZ1aeQ"/><rect x="38.628" y="69.785" width="60.359" height="86.669" rx="9.652" ry="9.652" id="BkjlnEbk6xX"/><rect x="44.819" y="85.827" width="16.25" height="8.512" id="BJ3x3E-k6gX"/><rect x="61.843" y="85.827" width="31.727" height="8.512" id="ryaxnVW1plQ"/><rect x="44.396" y="100.738" width="48.751" height="2.321" id="rJAlhEWk6e7"/><rect x="44.819" y="113.051" width="48.751" height="2.321" id="HJJZhVZkpxm"/><rect x="44.819" y="126.63" width="26.31" height="2.321" id="Byx-2VWyTxm"/><rect x="73.11" y="126.697" width="48.751" height="2.321" id="BJbWn4-1TgQ"/><rect x="94.585" y="102.844" width="29.164" height="47.834" rx="4.929" ry="4.929" id="Syzb24-J6eX"/><rect x="95.082" y="150.639" width="27.858" height="5.951" id="r1m-3EZyal7"/><rect x="97.791" y="108.19" width="6.964" height="1.952" id="HkNWnNWk6g7"/><rect x="105.529" y="108.19" width="13.929" height="1.952" id="ryaVZkTlX"/><rect x="97.791" y="117.071" width="21.667" height="1.094" id="SklpEbkTxX"/><rect x="97.791" y="132.582" width="6.964" height="3.967" id="SyWpNbk6gX"/><rect x="112.423" y="132.582" width="6.191" height="3.967" id="BJfp4-yag7"/><rect x="97.791" y="126.964" width="21.667" height="0.793" id="HJmaVZJpxQ"/><rect x="97.791" y="145.482" width="21.667" height="2.38" id="HkEaN-JalX"/><rect x="97.791" y="141.514" width="21.667" height="3.174" id="HJSaVbJplX"/><rect x="93.886" y="101.964" width="29.406" height="55.47" rx="4.377" ry="4.377" id="rJIaE-1peX"/><g id="B1wpNWk6lX"><path d="M419.346,157.857h0a15.673,15.673,0,0,1-15.672-15.672V126.22a.6.6,0,0,1,.6-.6h30.461a.6.6,0,0,1,.6.6v15.639A16,16,0,0,1,419.346,157.857Z" id="S1_6V-kalm"/><ellipse cx="419.509" cy="125.616" rx="15.835" ry="2.406" id="SktTNbyTgQ"/><path d="M435.343,128.022s8.868-1.1,11.823,4.675-11.895,18.4-11.895,18.4v-5.556s7.673-5.835,7.251-9.547-8.445-5.362-8.445-5.362" id="rk9pEZJplX"/><path d="M418.971,120.579c.279-1.059-.163-1.366.161-2.448.376-1.26,1.209-1.626,1-2.136-.227-.568-1.285-.182-2.183-.877a2.784,2.784,0,0,1-.824-2.958c.525-1.671,2.545-2.478,2.842-2.2.406.384-2.41,2.805-1.658,4.329.5,1,2.01.539,2.6,1.474,1.247,1.97-3.65,6.939-3.516,7.036A3.8,3.8,0,0,0,418.971,120.579Z" id="rJs64-ypl7"/><path d="M413.9,117.279c.279-1.059-.163-1.366.16-2.447.377-1.26,1.21-1.627,1.006-2.137-.227-.567-1.285-.181-2.183-.877a2.784,2.784,0,0,1-.824-2.958c.525-1.671,2.545-2.478,2.842-2.2.406.384-2.41,2.805-1.658,4.329.5,1,2.01.54,2.6,1.474,1.247,1.97-3.65,6.94-3.516,7.036A3.8,3.8,0,0,0,413.9,117.279Z" id="Hk3T4bJaxX"/><path d="M424.038,115.217c.279-1.059-.162-1.366.161-2.448.376-1.26,1.209-1.626,1-2.136-.227-.568-1.285-.182-2.183-.877a2.784,2.784,0,0,1-.824-2.958c.525-1.671,2.545-2.478,2.842-2.2.406.384-2.41,2.805-1.658,4.329.5,1,2.01.539,2.6,1.474,1.248,1.97-3.65,6.94-3.516,7.036A3.8,3.8,0,0,0,424.038,115.217Z" id="rya6NbyTlQ"/></g><path d="M418.924,157.434h0a15.672,15.672,0,0,1-15.672-15.671V125.8a.6.6,0,0,1,.6-.6h30.461a.6.6,0,0,1,.6.6v15.639A16,16,0,0,1,418.924,157.434Z" id="S1RpV-kTxQ"/><ellipse cx="419.087" cy="125.194" rx="15.835" ry="2.406" id="HyygTNWJal7"/><path d="M434.921,127.6s8.867-1.1,11.823,4.675-11.9,18.4-11.9,18.4v-5.556s7.673-5.836,7.25-9.548-8.445-5.362-8.445-5.362" id="H1lx6NbJ6xX"/><g id="BJbx64bJpxQ_SkAMm1axX" data-animator-group="true" data-animator-type="0"><path d="M418.549,120.157c.279-1.06-.163-1.366.16-2.448.377-1.26,1.209-1.626,1.006-2.136-.227-.568-1.286-.182-2.183-.878a2.782,2.782,0,0,1-.824-2.957c.524-1.672,2.545-2.479,2.842-2.2.406.384-2.41,2.806-1.658,4.329.5,1,2.01.54,2.6,1.474,1.248,1.971-3.649,6.94-3.515,7.037A3.8,3.8,0,0,0,418.549,120.157Z" id="BJbx64bJpxQ"/></g><g id="r1zxaVZJTlQ_BkdlX1px7" data-animator-group="true" data-animator-type="0"><path d="M413.482,116.857c.279-1.059-.163-1.366.16-2.448.377-1.26,1.209-1.626,1.006-2.136-.227-.568-1.286-.182-2.183-.877a2.786,2.786,0,0,1-.825-2.958c.525-1.671,2.546-2.478,2.843-2.2.406.384-2.41,2.805-1.658,4.329.5,1,2.01.539,2.6,1.474,1.248,1.97-3.649,6.94-3.515,7.036A3.8,3.8,0,0,0,413.482,116.857Z" id="r1zxaVZJTlQ"/></g><g id="Bk7eT4bypg7_By37Myae7" data-animator-group="true" data-animator-type="0"><path d="M423.616,114.8c.279-1.059-.163-1.366.16-2.448.377-1.26,1.21-1.626,1.006-2.136-.227-.568-1.286-.182-2.183-.878a2.782,2.782,0,0,1-.824-2.957c.524-1.672,2.545-2.478,2.842-2.2.406.384-2.41,2.806-1.658,4.329.5,1,2.01.54,2.6,1.474,1.248,1.971-3.649,6.94-3.515,7.037A3.8,3.8,0,0,0,423.616,114.8Z" id="Bk7eT4bypg7"/></g><g id="H1Nl64-yagm_ByKv-k6gm" data-animator-group="true" data-animator-type="1"><g id="H1Nl64-yagm"><g id="rkHgpNbJTgm"><circle cx="23.224" cy="31.18" r="22.168" id="SkUlTEZJTgQ"/></g><circle cx="22.802" cy="31.18" r="22.168" id="ByDeaNb16gm"/><text id="HkOep4bk6gQ">&lt;/&gt;</text></g></g><g id="HJYgpEWJTxm_SJyIZ16xQ" data-animator-group="true" data-animator-type="1"><g id="HJYgpEWJTxm"><g id="HJcgaV-kTgX"><circle cx="372.639" cy="26.747" r="22.168" id="HJig64-1peQ"/></g><circle cx="372.216" cy="26.747" r="22.168" id="SJ2gaNWyTeQ"/><circle cx="372.216" cy="26.747" r="1.689" id="Skax64bJTe7"/><rect x="371.372" y="24.213" width="1.689" height="0.422" id="SJAl6EZy6gQ"/><path d="M370.739,23.791V13.48a1.512,1.512,0,0,1,1.512-1.512h0a1.443,1.443,0,0,1,1.443,1.443v10.38" id="B11W6NZyaeX"/></g></g></g></g><script>(function(){var a=document.querySelector('#B1hEZy6xQ'),b=a.querySelectorAll('style'),c=function(d){b.forEach(function(f){var g=f.textContent;g&amp;&amp;(f.textContent=g.replace(/transform-box:[^;\r\n]*/gi,'transform-box: '+d))})};c('initial'),window.requestAnimationFrame(function(){return c('fill-box')})})();</script></svg>