<svg xmlns="http://www.w3.org/2000/svg" viewBox="0 0 60.469 60.469"><defs><style>.cls-1{fill:#fff;}.cls-2{fill:#6200ee;}</style></defs><title>fb2</title><g id="Layer_2" data-name="Layer 2"><g id="Layer_34" data-name="Layer 34"><g id="Facebook"><g id="back"><circle cx="30.469" cy="30.469" r="30"/><circle class="cls-1" cx="30" cy="30" r="30"/></g><g id="Facebook-2" data-name="Facebook"><path d="M45.064,14.063H15.873a1.81,1.81,0,0,0-1.81,1.81V45.064a1.81,1.81,0,0,0,1.81,1.811H31.588V34.168H27.312V29.216h4.276V25.564c0-4.238,2.589-6.546,6.37-6.546a34.809,34.809,0,0,1,3.821.2v4.429H39.157c-2.057,0-2.454.977-2.454,2.411v3.161h4.9l-.638,4.952H36.7V46.875h8.361a1.811,1.811,0,0,0,1.811-1.811V15.873A1.81,1.81,0,0,0,45.064,14.063Z"/><path class="cls-2" d="M44.6,13.594H15.405a1.81,1.81,0,0,0-1.811,1.811V44.6a1.81,1.81,0,0,0,1.811,1.811H31.12V33.7H26.844V28.747H31.12V25.1c0-4.239,2.588-6.546,6.369-6.546a34.9,34.9,0,0,1,3.821.2v4.429H38.688c-2.056,0-2.454.977-2.454,2.411v3.161h4.9L40.5,33.7H36.234V46.406H44.6A1.81,1.81,0,0,0,46.406,44.6V15.405A1.81,1.81,0,0,0,44.6,13.594Z"/></g></g></g></g></svg>