<svg xmlns="http://www.w3.org/2000/svg" viewBox="0 0 60.469 60.469"><defs><style>.cls-1,.cls-3{fill-rule:evenodd;}.cls-2{fill:#fff;}.cls-3{fill:#6200ee;}</style></defs><title>insta2</title><g id="Layer_2" data-name="Layer 2"><g id="Layer_34" data-name="Layer 34"><g id="Instagram"><circle id="back" cx="30.469" cy="30.469" r="30"/><path class="cls-1" d="M43.861,28.351H40.936a10.339,10.339,0,1,1-20,0H18.014V42.568a1.292,1.292,0,0,0,1.293,1.291h23.26a1.292,1.292,0,0,0,1.294-1.291Zm0-9.045a1.293,1.293,0,0,0-1.294-1.292H38.692A1.293,1.293,0,0,0,37.4,19.306v3.877a1.293,1.293,0,0,0,1.293,1.293h3.875a1.293,1.293,0,0,0,1.294-1.293Zm-12.924,5.17A6.462,6.462,0,1,0,37.4,30.937a6.461,6.461,0,0,0-6.462-6.461M43.861,47.737H18.014a3.877,3.877,0,0,1-3.876-3.878V18.014a3.876,3.876,0,0,1,3.876-3.876H43.861a3.875,3.875,0,0,1,3.876,3.876V43.859a3.876,3.876,0,0,1-3.876,3.878"/><path class="cls-1" d="M43.392,27.883H40.468a10.338,10.338,0,1,1-20,0H17.545V42.1a1.293,1.293,0,0,0,1.294,1.292H42.1A1.292,1.292,0,0,0,43.392,42.1Zm0-9.046A1.292,1.292,0,0,0,42.1,17.545H38.223a1.292,1.292,0,0,0-1.292,1.292v3.878a1.292,1.292,0,0,0,1.292,1.292H42.1a1.292,1.292,0,0,0,1.293-1.292Zm-12.923,5.17a6.462,6.462,0,1,0,6.462,6.461,6.461,6.461,0,0,0-6.462-6.461M43.392,47.269H17.545a3.877,3.877,0,0,1-3.876-3.878V17.545a3.876,3.876,0,0,1,3.876-3.876H43.392a3.876,3.876,0,0,1,3.877,3.876V43.391a3.877,3.877,0,0,1-3.877,3.878"/><circle id="back-2" data-name="back" class="cls-2" cx="30" cy="30" r="30"/><g id="Instagram-2" data-name="Instagram"><path class="cls-1" d="M43.392,27.883H40.468a10.338,10.338,0,1,1-20,0H17.545V42.1a1.293,1.293,0,0,0,1.294,1.292H42.1A1.292,1.292,0,0,0,43.392,42.1Zm0-9.046A1.292,1.292,0,0,0,42.1,17.545H38.223a1.292,1.292,0,0,0-1.292,1.292v3.878a1.292,1.292,0,0,0,1.292,1.292H42.1a1.292,1.292,0,0,0,1.293-1.292Zm-12.923,5.17a6.462,6.462,0,1,0,6.462,6.461,6.461,6.461,0,0,0-6.462-6.461M43.392,47.269H17.545a3.877,3.877,0,0,1-3.876-3.878V17.545a3.876,3.876,0,0,1,3.876-3.876H43.392a3.876,3.876,0,0,1,3.877,3.876V43.391a3.877,3.877,0,0,1-3.877,3.878"/><path class="cls-3" d="M42.924,27.414H40a10.339,10.339,0,1,1-20,0H17.076V41.63a1.293,1.293,0,0,0,1.294,1.292H41.63a1.293,1.293,0,0,0,1.294-1.292Zm0-9.046a1.293,1.293,0,0,0-1.294-1.292H37.754a1.292,1.292,0,0,0-1.292,1.292v3.878a1.292,1.292,0,0,0,1.292,1.292H41.63a1.293,1.293,0,0,0,1.294-1.292ZM30,23.538A6.462,6.462,0,1,0,36.462,30,6.462,6.462,0,0,0,30,23.538M42.924,46.8H17.076A3.877,3.877,0,0,1,13.2,42.922V17.076A3.876,3.876,0,0,1,17.076,13.2H42.924A3.876,3.876,0,0,1,46.8,17.076V42.922A3.877,3.877,0,0,1,42.924,46.8"/></g></g></g></g></svg>