<svg xmlns="http://www.w3.org/2000/svg" viewBox="0 0 115.791 48.715"><defs><style>.cls-1,.cls-3,.cls-7,.cls-8{fill:none;stroke-miterlimit:10;}.cls-1,.cls-8{stroke:#000;}.cls-1,.cls-7{stroke-width:0.133px;}.cls-2{fill:#5c4fa1;}.cls-3{stroke:#394fa2;}.cls-3,.cls-8{stroke-width:0.178px;}.cls-4{fill:#4ac5d8;}.cls-5{fill:#51b5e7;}.cls-6{fill:#015b84;}.cls-7{stroke:#231f20;}.cls-9{opacity:0.04;}.cls-10,.cls-11{fill:#231f20;}.cls-11{opacity:0.13;}</style></defs><title>logo</title><g id="Layer_2" data-name="Layer 2"><g id="Layer_18" data-name="Layer 18"><polyline class="cls-1" points="21.324 38.962 15.004 41.263 14.792 39.994 16.123 40.855 16.131 45.787 21.324 38.962 15.138 39.994 14.4 39.867 10.73 37.383 5.952 34.621 3.746 28.021 3.746 24.786 0.53 20.49 1.73 14.648 5.618 10.448 9.65 6.393 15.698 3.4 21.986 0.938 29.282 0.696 33.843 1.034 40.275 3.448 46.275 7.262 52.563 14.262 55.203 21.262 54.915 24.11 50.211 28.793 43.539 28.648 41.955 31.352 35.043 35.455 28.562 32.462 25.298 35.069 21.413 39.146 17.495 34.863 10.963 37.335 10.778 37.149 10.001 31.267 6.193 34.513"/><polyline class="cls-1" points="9.763 31.212 3.986 28.152 3.986 27.715 7.488 21.7 9.968 31.032 10.274 30.903 13.214 25.993 7.284 21.52 1.89 14.861"/><line class="cls-1" x1="1.098" y1="20.594" x2="7.232" y2="21.751"/><polyline class="cls-1" points="7.232 21.294 5.667 10.753 6.002 10.753 9.625 12.884 7.488 21.7 13.082 19.724 18.489 14.005 16.873 8.959 13.214 19.303 12.915 19.387 9.821 13.108 9.932 12.659 16.594 9.099 16.761 8.678 15.702 3.632 15.423 3.857 9.625 12.547 9.681 6.632"/><polyline class="cls-2" points="14.792 39.994 16.123 40.855 15.004 41.263"/><polygon points="16.131 45.787 21.258 39.067 16.123 40.855 16.131 45.787"/><polyline class="cls-2" points="14.782 40.123 21.258 39.067 16.123 40.855 14.782 40.123"/><polygon class="cls-3" points="16.123 40.855 14.782 40.123 21.324 38.962 16.123 40.855"/><polyline points="6.116 34.661 10.012 31.337 10.812 37.407 14.782 40.123 21.258 39.067 17.401 34.661 10.012 31.337 13.246 26.017 18.07 30.532 17.401 34.661 10.812 37.407"/><polyline points="13.032 19.821 16.814 9.012 18.565 14.093 13.032 19.821 7.412 21.718 9.671 12.838 13.032 19.821"/><polyline points="22.528 18.939 24.546 26.741 29.804 22.845 34.353 18.201 25.76 14.493 22.528 18.939"/><polyline points="31.41 5.344 29.373 8.896 37.744 8.248 31.41 5.344"/><polyline points="45.759 13.047 43.238 22.661 48.959 18.707 45.759 13.047"/><polyline points="37.115 24.761 43.731 28.678 43.238 22.661 37.115 24.761"/><polyline points="21.409 9.012 22.876 4.664 31.41 5.344 21.409 9.012"/><polyline points="19.214 23.459 18.565 14.093 22.528 18.939 19.214 23.459"/><polyline points="37.115 30.452 35.049 35.439 41.849 31.306 37.115 30.452"/><polyline points="37.744 8.248 40.334 3.459 46.316 7.392 37.744 8.248"/><polyline points="9.671 12.838 9.671 6.46 15.694 3.425 9.671 12.838"/><polyline points="18.07 30.532 19.214 23.459 13.246 26.017 18.07 30.532"/><polyline points="18.07 30.532 17.401 34.661 25.324 35.024 18.07 30.532"/><polyline points="28.765 32.551 35.049 35.439 37.115 30.452 28.765 32.551"/><polyline points="34.353 13.795 25.76 14.493 29.373 8.896 34.353 13.795"/><polyline points="50.997 23.886 50.194 28.678 54.925 24.162 50.997 23.886 55.198 21.172 54.925 24.162"/><polyline points="40.654 17.518 37.744 8.248 45.759 13.047 40.654 17.518"/><polyline points="9.671 12.838 9.671 6.46 15.694 3.425 16.814 9.012 9.671 12.838"/><polyline class="cls-4" points="37.744 8.248 33.808 1.109 40.334 3.459 37.744 8.248"/><polyline class="cls-2" points="22.528 18.939 29.804 22.845 25.76 14.493 22.528 18.939"/><polyline class="cls-2" points="3.788 28.214 10.012 31.337 7.412 21.718 3.788 28.214"/><polyline class="cls-2" points="13.246 26.017 13.032 19.821 19.214 23.459 13.246 26.017"/><polyline class="cls-2" points="18.07 30.532 28.765 32.551 24.546 26.741 18.07 30.532"/><polyline class="cls-2" points="37.115 30.452 41.849 31.306 37.115 24.761 37.115 30.452"/><polyline class="cls-2" points="16.814 9.012 21.939 1.083 22.876 4.664 16.814 9.012"/><polyline class="cls-2" points="37.744 8.248 45.759 13.047 46.316 7.392 37.744 8.248"/><polyline class="cls-2" points="50.194 28.678 43.238 22.661 50.997 23.886 50.194 28.678"/><polyline class="cls-2" points="7.412 21.718 5.549 10.606 9.671 12.838 7.412 21.718"/><polyline class="cls-5" points="13.246 26.017 13.032 19.821 7.412 21.718 13.246 26.017"/><polyline class="cls-5" points="28.765 32.551 29.804 22.845 33.69 27.907 28.765 32.551"/><polyline class="cls-5" points="41.849 31.306 37.115 24.761 43.731 28.678 41.849 31.306"/><polyline class="cls-5" points="34.353 18.201 25.76 14.493 34.353 13.795 34.353 18.201"/><polyline class="cls-5" points="22.528 18.939 18.565 14.093 21.409 9.012 25.76 14.493 22.528 18.939"/><polyline class="cls-5" points="31.41 5.344 29.435 0.747 22.876 4.664 31.41 5.344"/><polyline class="cls-6" points="7.412 21.718 1.797 14.73 5.549 10.606 7.412 21.718"/><polyline class="cls-6" points="3.697 28.087 3.697 24.712 7.322 21.59 3.697 28.087"/><polyline class="cls-6" points="17.401 34.661 21.258 39.067 25.324 35.024 17.401 34.661"/><polyline class="cls-6" points="25.324 35.024 28.765 32.551 18.07 30.532 25.324 35.024"/><polyline class="cls-6" points="33.69 27.907 37.115 24.761 29.804 22.845 33.69 27.907"/><polyline class="cls-6" points="43.238 22.661 34.353 18.201 40.654 17.518 43.238 22.661"/><polyline class="cls-6" points="50.997 23.886 48.959 18.707 55.198 21.172 50.997 23.886"/><polyline class="cls-6" points="34.353 13.795 29.373 8.896 37.744 8.248 34.353 13.795"/><polyline class="cls-2" points="18.565 14.093 16.814 9.012 21.409 9.012 18.565 14.093"/><polyline class="cls-2" points="43.238 22.661 45.759 13.047 40.654 17.518 43.238 22.661"/><polyline class="cls-6" points="16.814 9.012 21.409 9.012 22.876 4.664 16.814 9.012"/><polygon class="cls-7" points="4.084 29.14 6.116 34.661 10.012 31.337 4.084 28.373 4.084 29.14"/><polygon class="cls-8" points="3.788 27.097 3.788 24.571 7.231 21.956 4.084 27.58 3.788 27.097"/><polyline class="cls-8" points="3.442 24.431 0.662 20.561 7.048 21.718"/><polyline class="cls-8" points="0.662 20.082 1.797 14.73 7.231 21.371 10.012 30.918 10.812 37.407 6.116 34.661"/><polyline class="cls-8" points="10.812 37.407 17.235 35.024 16.765 34.458 10.012 31.337 17.729 30.656 17.729 30.234 13.246 26.184 10.293 30.88"/><polyline class="cls-8" points="13.032 25.787 7.6 21.956 7.847 21.613 13.032 19.821 9.671 12.838 9.671 6.46 5.464 10.879 1.797 14.73"/><polygon class="cls-8" points="5.632 11.111 7.412 21.244 7.587 21.244 9.671 12.838 5.549 10.606 5.632 11.111"/><polyline class="cls-8" points="14.782 40.123 21.258 39.067 25.324 35.024 28.765 32.551 35.049 35.439 41.849 31.306 43.731 28.678 50.194 28.678 54.925 24.162 55.198 21.172 52.499 14.468 46.316 7.392 40.334 3.459 33.808 1.109 29.435 0.747 21.939 1.083 15.694 3.425 9.671 6.46"/><polyline class="cls-8" points="10.812 37.407 14.782 40.123 17.401 34.661 18.07 30.532 19.214 23.459 13.246 26.017 13.032 19.821 19.214 23.459 22.528 18.939 18.565 14.093 19.214 23.459 13.032 19.821 16.814 9.012 9.671 12.838 15.694 3.425 16.814 9.012 21.939 1.083 22.876 4.664 16.814 9.012 13.032 19.821 18.565 14.093 16.814 9.012 21.409 9.012 18.565 14.093 22.528 18.939 21.409 9.012 22.876 4.664 29.435 0.747 31.41 5.344 33.808 1.109 37.744 8.248 40.334 3.459 46.316 7.392 37.744 8.248 45.759 13.047 52.499 14.468 48.959 18.707 45.759 13.047 43.238 22.661 48.959 18.707 55.198 21.172 50.997 23.886 54.925 24.162 50.194 28.678 50.997 23.886 48.959 18.707 43.238 22.661 50.997 23.886 50.194 28.678 43.238 22.661 43.731 28.678 37.115 24.761 41.849 31.306 37.115 30.452 35.049 35.439 28.765 32.551 18.07 30.532 25.324 35.024 17.401 34.661 21.258 39.067 17.401 34.661 18.07 30.532 24.546 26.741 19.214 23.459 22.528 18.939 24.546 26.741 28.765 32.551 29.804 22.845 24.546 26.741 22.528 18.939 29.804 22.845 25.76 14.493 21.409 9.012 31.41 5.344 22.876 4.664 21.409 9.012 29.373 8.896 31.41 5.344 37.744 8.248 29.373 8.896 25.76 14.493 22.528 18.939 24.546 26.741 29.804 22.845 25.76 14.493 29.373 8.896 34.353 13.795 37.744 8.248 40.654 17.518 43.238 22.661 37.115 24.761 37.115 30.452 28.765 32.551 33.69 27.907 29.804 22.845 25.76 14.493 34.353 13.795 34.353 18.201 40.654 17.518 34.353 13.795 34.353 18.201 25.76 14.493 29.804 22.845 34.353 18.201 43.238 22.661 37.115 24.761 34.353 18.201 29.804 22.845 37.115 24.761 33.69 27.907 37.115 30.452 41.849 31.306 43.731 28.678 43.238 22.661 40.654 17.518 45.759 13.047 46.316 7.392"/><ellipse cx="3.788" cy="28.214" rx="1.325" ry="1.332"/><ellipse cx="6.116" cy="34.661" rx="0.8" ry="0.805"/><ellipse cx="10.012" cy="31.337" rx="0.8" ry="0.805"/><circle cx="10.812" cy="37.407" r="0.547"/><circle cx="14.782" cy="40.123" r="0.653"/><circle cx="21.258" cy="39.067" r="0.653"/><text></text><ellipse cx="17.401" cy="34.661" rx="0.896" ry="0.901"/><circle cx="18.07" cy="30.532" r="0.668"/><circle cx="13.246" cy="26.017" r="0.541"/><circle cx="19.214" cy="23.459" r="0.541"/><ellipse cx="13.032" cy="19.821" rx="0.711" ry="0.715"/><ellipse cx="18.565" cy="14.093" rx="0.711" ry="0.715"/><ellipse cx="22.528" cy="18.939" rx="0.877" ry="0.882"/><ellipse cx="24.546" cy="26.741" rx="0.877" ry="0.882"/><circle cx="28.765" cy="32.551" r="0.588"/><ellipse cx="35.049" cy="35.439" rx="0.889" ry="0.894"/><ellipse cx="37.115" cy="30.452" rx="0.889" ry="0.894"/><circle cx="41.849" cy="31.306" r="0.589"/><ellipse cx="43.731" cy="28.678" rx="0.772" ry="0.777"/><ellipse cx="43.238" cy="22.661" rx="0.861" ry="0.866"/><circle cx="40.654" cy="17.518" r="0.556"/><ellipse cx="45.759" cy="13.047" rx="0.758" ry="0.763"/><circle cx="46.316" cy="7.392" r="0.557"/><ellipse cx="52.499" cy="14.468" rx="0.781" ry="0.786"/><circle cx="48.959" cy="18.707" r="0.547"/><ellipse cx="55.198" cy="21.172" rx="0.735" ry="0.739"/><circle cx="54.925" cy="24.162" r="0.529"/><circle cx="50.997" cy="23.886" r="0.66"/><circle cx="50.194" cy="28.678" r="0.66"/><circle cx="46.316" cy="7.392" r="0.557"/><ellipse cx="37.115" cy="24.761" rx="0.772" ry="0.777"/><circle cx="29.804" cy="22.845" r="0.571"/><ellipse cx="34.353" cy="18.201" rx="0.973" ry="0.979"/><ellipse cx="25.76" cy="14.493" rx="0.799" ry="0.804"/><ellipse cx="21.409" cy="9.012" rx="0.799" ry="0.804"/><ellipse cx="22.876" cy="4.664" rx="0.989" ry="0.994"/><ellipse cx="21.939" cy="1.083" rx="0.742" ry="0.746"/><ellipse cx="29.435" cy="0.747" rx="0.742" ry="0.746"/><circle cx="31.41" cy="5.344" r="0.633"/><circle cx="29.373" cy="8.896" r="0.541"/><ellipse cx="34.353" cy="13.795" rx="0.694" ry="0.698"/><ellipse cx="37.744" cy="8.248" rx="0.932" ry="0.938"/><circle cx="40.334" cy="3.459" r="0.592"/><ellipse cx="33.808" cy="1.109" rx="0.762" ry="0.767"/><ellipse cx="33.69" cy="27.907" rx="1.107" ry="1.113"/><circle cx="3.788" cy="24.839" r="0.662"/><circle cx="0.662" cy="20.561" r="0.662"/><circle cx="7.412" cy="21.718" r="0.662"/><circle cx="1.797" cy="14.73" r="0.589"/><ellipse cx="5.549" cy="10.606" rx="0.737" ry="0.742"/><ellipse cx="9.671" cy="12.838" rx="0.737" ry="0.742"/><circle cx="9.671" cy="6.46" r="0.547"/><ellipse cx="15.694" cy="3.425" rx="0.731" ry="0.735"/><circle cx="16.814" cy="9.012" r="0.624"/><path class="cls-2" d="M27.559,45.114q-.006.044-.027.246c-.015.135-.029.282-.042.442h-.171a6.884,6.884,0,0,1-2.119-.3,3.89,3.89,0,0,1-1.523-.872,2.893,2.893,0,0,1-.657-.947,3.115,3.115,0,0,1-.242-1.26,2.762,2.762,0,0,1,.24-1.16,3.113,3.113,0,0,1,.625-.915,3.9,3.9,0,0,1,1.508-.9,6.1,6.1,0,0,1,2.027-.332H27.4c0,.059.01.153.02.281s.021.268.034.418h-.166a6.335,6.335,0,0,0-1.266.134,3.849,3.849,0,0,0-1.13.4,2.565,2.565,0,0,0-.948.9,2.241,2.241,0,0,0-.333,1.184,2.431,2.431,0,0,0,.3,1.2,2.373,2.373,0,0,0,.943.906,4.032,4.032,0,0,0,1.181.44,6.319,6.319,0,0,0,1.3.136h.093C27.464,45.118,27.51,45.117,27.559,45.114Z"/><path class="cls-2" d="M34.434,45.453l-.76.393c-.014-.036-.118-.278-.313-.728s-.453-1.026-.773-1.733H29.7q-.515,1.137-.795,1.763t-.308.7l-.655-.354q.128-.253,1.048-2.238T30.9,39.083h.635q.976,2.187,1.919,4.237T34.434,45.453ZM32.312,42.76q-.258-.6-.546-1.246t-.6-1.358l-.019,0q-.246.537-.593,1.319t-.573,1.281l0,.005h2.339Z"/><path class="cls-2" d="M40.672,45.324l-.611.5q-.108-.111-.761-.847t-2.015-2.3l.005-.044a2.456,2.456,0,0,0,.493-.212,2.59,2.59,0,0,0,.518-.354,1.621,1.621,0,0,0,.315-.411,1.368,1.368,0,0,0,.134-.655,1.065,1.065,0,0,0-.2-.647,1.141,1.141,0,0,0-.544-.4,2.046,2.046,0,0,0-.6-.129c-.208-.015-.4-.022-.576-.022l-.269,0-.136,0q-.01.928-.013,1.637t0,1q0,.669.007,1.818t.013,1.441H35.63c0-.2.008-.574.015-1.135s.009-1.261.009-2.1v-.9q0-.659-.024-2.4l.488-.01q.438-.009.809-.009a6.9,6.9,0,0,1,.824.048,2.927,2.927,0,0,1,.781.21,1.763,1.763,0,0,1,.765.6,1.568,1.568,0,0,1,.283.934,1.635,1.635,0,0,1-.426,1.154,3.746,3.746,0,0,1-.807.686v.024q.669.782,1.468,1.613T40.672,45.324Z"/><path class="cls-2" d="M47.378,39.4q-.024.059-1.033,2.228t-1.926,4.181H43.77q-1.011-2.257-1.934-4.264t-.967-2.106l.761-.378q.034.1.882,2.033t1.634,3.645h.009q.8-1.752,1.66-3.691t.891-2Z"/><path class="cls-2" d="M52.754,45.7,52.1,45.7q-.6,0-1.5,0c-.413,0-.792,0-1.135,0s-.634.005-.871.005q.009-.283.017-1.225t.007-1.948q0-.552,0-1.46t-.019-1.88c.231,0,.52,0,.866,0s.7,0,1.072,0q.933,0,1.519,0l.634,0v.678l-.612-.007q-.564-.008-1.4-.007l-.718,0-.557,0c0,.367,0,.735-.009,1.1s-.01.712-.01,1.037l.52,0,.535,0c.572,0,1.085,0,1.535-.007l.72-.007v.673l-.8-.007q-.766-.008-1.4-.007l-.559,0-.544,0q0,.923,0,1.464t.01.909c.191,0,.424.006.7.007l.884,0q.726,0,1.223,0c.33,0,.515,0,.554,0Z"/><path class="cls-2" d="M59.681,45.324l-.611.5q-.108-.111-.761-.847t-2.016-2.3l.005-.044a2.46,2.46,0,0,0,.494-.212,2.619,2.619,0,0,0,.518-.354,1.621,1.621,0,0,0,.315-.411,1.368,1.368,0,0,0,.134-.655,1.065,1.065,0,0,0-.2-.647,1.141,1.141,0,0,0-.544-.4,2.053,2.053,0,0,0-.6-.129c-.209-.015-.4-.022-.576-.022l-.269,0-.137,0q-.009.928-.012,1.637t0,1q0,.669.007,1.818t.012,1.441h-.8c0-.2.008-.574.014-1.135s.01-1.261.01-2.1v-.9q0-.659-.024-2.4c.032,0,.2,0,.487-.01s.563-.009.81-.009a6.9,6.9,0,0,1,.824.048,2.937,2.937,0,0,1,.781.21,1.769,1.769,0,0,1,.765.6,1.568,1.568,0,0,1,.283.934,1.635,1.635,0,0,1-.426,1.154,3.77,3.77,0,0,1-.807.686v.024q.669.782,1.468,1.613T59.681,45.324Z"/><path class="cls-2" d="M67.808,45.114q-.006.044-.027.246c-.015.135-.029.282-.042.442h-.171a6.884,6.884,0,0,1-2.119-.3,3.89,3.89,0,0,1-1.523-.872,2.893,2.893,0,0,1-.657-.947,3.115,3.115,0,0,1-.242-1.26,2.762,2.762,0,0,1,.24-1.16,3.113,3.113,0,0,1,.625-.915,3.9,3.9,0,0,1,1.508-.9,6.1,6.1,0,0,1,2.027-.332h.219c0,.059.01.153.02.281s.021.268.034.418h-.166a6.335,6.335,0,0,0-1.266.134,3.849,3.849,0,0,0-1.13.4,2.565,2.565,0,0,0-.948.9,2.241,2.241,0,0,0-.333,1.184,2.431,2.431,0,0,0,.3,1.2,2.373,2.373,0,0,0,.943.906,4.032,4.032,0,0,0,1.181.44,6.319,6.319,0,0,0,1.3.136h.093C67.713,45.118,67.759,45.117,67.808,45.114Z"/><path class="cls-2" d="M74.291,45.324l-.612.5q-.108-.111-.761-.847t-2.015-2.3l0-.044a2.456,2.456,0,0,0,.493-.212,2.59,2.59,0,0,0,.518-.354,1.621,1.621,0,0,0,.315-.411,1.368,1.368,0,0,0,.134-.655,1.065,1.065,0,0,0-.2-.647,1.136,1.136,0,0,0-.544-.4,2.046,2.046,0,0,0-.6-.129c-.208-.015-.4-.022-.576-.022l-.268,0-.137,0q-.011.928-.012,1.637t0,1q0,.669.008,1.818t.012,1.441h-.806c0-.2.008-.574.015-1.135s.009-1.261.009-2.1v-.9q0-.659-.024-2.4l.488-.01q.438-.009.809-.009a6.929,6.929,0,0,1,.825.048,2.93,2.93,0,0,1,.78.21,1.766,1.766,0,0,1,.766.6,1.574,1.574,0,0,1,.282.934,1.635,1.635,0,0,1-.426,1.154,3.746,3.746,0,0,1-.807.686v.024q.669.782,1.468,1.613T74.291,45.324Z"/><path class="cls-2" d="M79.741,45.7l-.649-.005q-.606,0-1.5,0-.621,0-1.135,0c-.344,0-.634.005-.872.005q.009-.283.017-1.225t.007-1.948q0-.552,0-1.46t-.019-1.88c.231,0,.52,0,.867,0s.7,0,1.071,0q.933,0,1.519,0l.635,0v.678l-.613-.007q-.564-.008-1.4-.007l-.718,0-.556,0c0,.367,0,.735-.01,1.1s-.01.712-.01,1.037l.52,0,.535,0q.86,0,1.536-.007l.72-.007v.673l-.806-.007q-.766-.008-1.4-.007l-.559,0-.545,0q0,.923,0,1.464t.01.909c.192,0,.425.006.7.007l.884,0q.727,0,1.223,0c.331,0,.515,0,.554,0Z"/><path class="cls-2" d="M87.061,45.453l-.76.393c-.014-.036-.118-.278-.313-.728s-.453-1.026-.773-1.733H82.324q-.516,1.137-.8,1.763t-.308.7l-.655-.354q.127-.253,1.048-2.238t1.911-4.171h.635q.977,2.187,1.919,4.237T87.061,45.453ZM84.939,42.76c-.172-.4-.355-.813-.546-1.246s-.393-.886-.6-1.358l-.019,0q-.246.537-.593,1.319T82.6,42.76l0,.005h2.339Z"/><path class="cls-2" d="M92.769,39.865l-.655-.005q-.576-.006-1.743-.005-.009,1-.015,1.52t0,1.412q0,.86.007,1.747c.005.591.009.985.012,1.18h-.806c.007-.2.013-.595.018-1.2s.007-1.193.007-1.769V41.4q0-.5-.015-1.542-1.039-.006-1.687,0l-.71.008v-.674q.5,0,1.223,0t1.536,0q1.181,0,1.975,0l.857,0Z"/><path class="cls-2" d="M94.771,45.714h-.806q0-.293.014-1.045t.01-2.158q0-.557-.005-1.46t-.019-1.875h.806q-.011.7-.018,1.624t-.007,1.511q0,1.485.01,2.3T94.771,45.714Z"/><path class="cls-2" d="M102.842,42.448a3.807,3.807,0,0,1-.271,1.452,3.229,3.229,0,0,1-.7,1.091,3.12,3.12,0,0,1-3.327.706,2.9,2.9,0,0,1-.967-.618,3.3,3.3,0,0,1-.763-1.12,3.813,3.813,0,0,1-.29-1.521,3.907,3.907,0,0,1,.229-1.37,3.318,3.318,0,0,1,.688-1.111,2.932,2.932,0,0,1,1.01-.71,3.2,3.2,0,0,1,2.454-.015,2.936,2.936,0,0,1,.971.657,3.249,3.249,0,0,1,.724,1.15A3.985,3.985,0,0,1,102.842,42.448Zm-.83.078a3.776,3.776,0,0,0-.213-1.248,2.552,2.552,0,0,0-.648-1.028,2.156,2.156,0,0,0-.657-.439,2.048,2.048,0,0,0-.814-.156,2.1,2.1,0,0,0-.819.158,2.124,2.124,0,0,0-.686.467,2.675,2.675,0,0,0-.609.966,3.558,3.558,0,0,0,0,2.461,2.636,2.636,0,0,0,.628.943,2.17,2.17,0,0,0,.66.432,2.047,2.047,0,0,0,.816.163,2.08,2.08,0,0,0,.814-.158,2.2,2.2,0,0,0,.687-.457,2.7,2.7,0,0,0,.6-.9A3.01,3.01,0,0,0,102.012,42.526Z"/><path class="cls-2" d="M110.239,39.176q-.009.766-.017,1.753t-.007,1.421q0,1.386.01,2.2c.006.546.009.836.009.872l-.649.317q-1.474-1.991-2.756-3.595L105.347,40.3l-.01,0q0,1.308.017,3.215t.022,2.2h-.762q.006-.121.015-.869t.01-2.08q0-.533,0-1.414t-.02-1.867l.742-.352,1.5,1.9q1.409,1.786,2.654,3.318l.01,0q0-.751-.02-2.531t-.019-2.637Z"/><path class="cls-2" d="M115.791,43.873a1.628,1.628,0,0,1-.237.882,1.827,1.827,0,0,1-.638.612,2.965,2.965,0,0,1-.841.325,4.678,4.678,0,0,1-1.051.11c-.209,0-.425-.006-.648-.02l-.389-.024-.039-.7c.046.006.173.019.381.037s.454.026.737.026a4.3,4.3,0,0,0,.669-.068,2.33,2.33,0,0,0,.63-.176,1.212,1.212,0,0,0,.442-.342.8.8,0,0,0,.154-.507.964.964,0,0,0-.154-.555,1.565,1.565,0,0,0-.51-.437q-.229-.136-.6-.307a6.354,6.354,0,0,1-.659-.352,2,2,0,0,1-.71-.661,1.539,1.539,0,0,1-.213-.8,1.517,1.517,0,0,1,.193-.778,1.929,1.929,0,0,1,.5-.564,2.158,2.158,0,0,1,.766-.352,4.007,4.007,0,0,1,1.005-.117q.3,0,.613.017c.207.011.325.018.355.022l.068.708c-.029,0-.148-.015-.356-.034s-.466-.03-.772-.03a2.794,2.794,0,0,0-.564.061,1.737,1.737,0,0,0-.51.188,1.019,1.019,0,0,0-.332.313.81.81,0,0,0-.137.469.836.836,0,0,0,.144.461,1.628,1.628,0,0,0,.54.457q.2.122.53.28t.647.345a2.187,2.187,0,0,1,.734.661A1.507,1.507,0,0,1,115.791,43.873Z"/><g class="cls-9"><path class="cls-10" d="M27.422,46.531h-.093q-.647,0-1.3.048a9.526,9.526,0,0,0-1.181.157,2.882,2.882,0,0,0-.943.323.533.533,0,0,0-.3.428q0,.226.333.422a3.156,3.156,0,0,0,.948.322,9,9,0,0,0,1.13.143c.437.033.858.048,1.266.048h.166c-.013.054-.024.1-.034.149s-.016.08-.02.1h-.219a16.369,16.369,0,0,1-2.027-.119,7.313,7.313,0,0,1-1.508-.32,2.261,2.261,0,0,1-.625-.327.529.529,0,0,1-.24-.414.572.572,0,0,1,.242-.449,2.1,2.1,0,0,1,.657-.338,7.413,7.413,0,0,1,1.523-.311,18.765,18.765,0,0,1,2.119-.107h.171c.013.057.027.109.042.158l.027.087Z"/><path class="cls-10" d="M33.452,47.172q-.942.732-1.919,1.512H30.9q-.99-.782-1.911-1.488t-1.048-.8l.655-.126c.019.017.122.1.308.249s.452.358.795.629h2.891q.48-.378.773-.618c.2-.161.3-.247.313-.26l.76.14Zm-1.138.2H29.975l0,0c.151.118.342.271.573.457s.429.343.593.471h.019c.211-.168.412-.33.6-.484s.374-.3.546-.445Z"/><path class="cls-10" d="M39.815,46.777q-.8.3-1.468.575v.009a5.2,5.2,0,0,1,.807.244q.426.165.426.412,0,.192-.283.333a2.606,2.606,0,0,1-.765.215,7.053,7.053,0,0,1-.781.075c-.266.012-.541.017-.824.017-.247,0-.517,0-.809,0l-.488,0q.024-.623.024-.857v-.323q0-.447-.009-.748t-.015-.405h.806c0,.07-.008.241-.013.514s-.007.49-.007.649c0,.07,0,.189,0,.357s.006.363.013.584h.405c.176,0,.368,0,.576-.008a5.3,5.3,0,0,0,.6-.046,1.806,1.806,0,0,0,.544-.142c.132-.065.2-.141.2-.231a.269.269,0,0,0-.134-.234,1.391,1.391,0,0,0-.315-.146,4.631,4.631,0,0,0-.518-.127c-.2-.039-.37-.063-.493-.075l-.005-.016q1.361-.556,2.015-.819c.436-.174.689-.275.761-.3l.611.179Z"/><path class="cls-10" d="M46.706,48.694q-.03-.021-.891-.712t-1.66-1.317h-.009q-.787.609-1.634,1.3c-.565.461-.859.7-.882.726l-.761-.136.967-.751q.922-.716,1.934-1.521h.649q.918.718,1.926,1.492t1.033.8Z"/><path class="cls-10" d="M52.754,46.564l-.554,0-1.223,0h-.884l-.7,0c0,.087-.007.2-.01.324s0,.3,0,.522h1.1l1.4,0,.8,0v.24l-.72,0c-.45,0-.963,0-1.535,0H49.38c0,.116,0,.239.01.37s.009.262.009.393h1.275l1.4,0,.612,0v.242h-.634q-.587,0-1.519,0c-.368,0-.725,0-1.072,0H48.6c.009-.231.016-.454.019-.67s0-.39,0-.521q0-.358-.007-.7c-.005-.224-.011-.37-.017-.437.237,0,.528,0,.871,0H52.1l.65,0Z"/><path class="cls-10" d="M58.824,46.777q-.8.3-1.468.575v.009a5.23,5.23,0,0,1,.807.244q.426.165.426.412,0,.192-.283.333a2.616,2.616,0,0,1-.765.215,7.076,7.076,0,0,1-.781.075c-.266.012-.541.017-.824.017-.247,0-.517,0-.81,0l-.487,0q.024-.623.024-.857v-.323q0-.447-.01-.748c-.006-.2-.011-.335-.014-.405h.8c0,.07-.007.241-.012.514s-.007.49-.007.649c0,.07,0,.189,0,.357s.006.363.012.584h.406c.176,0,.367,0,.576-.008a5.319,5.319,0,0,0,.6-.046,1.806,1.806,0,0,0,.544-.142c.132-.065.2-.141.2-.231a.269.269,0,0,0-.134-.234,1.391,1.391,0,0,0-.315-.146,4.687,4.687,0,0,0-.518-.127c-.206-.039-.37-.063-.494-.075l-.005-.016q1.362-.556,2.016-.819c.436-.174.689-.275.761-.3l.611.179Z"/><path class="cls-10" d="M67.671,46.531h-.093q-.647,0-1.3.048a9.526,9.526,0,0,0-1.181.157,2.882,2.882,0,0,0-.943.323.533.533,0,0,0-.3.428q0,.226.333.422a3.156,3.156,0,0,0,.948.322,9,9,0,0,0,1.13.143c.437.033.858.048,1.266.048H67.7c-.013.054-.024.1-.034.149s-.016.08-.02.1h-.219a16.369,16.369,0,0,1-2.027-.119,7.313,7.313,0,0,1-1.508-.32,2.261,2.261,0,0,1-.625-.327.529.529,0,0,1-.24-.414.572.572,0,0,1,.242-.449,2.1,2.1,0,0,1,.657-.338,7.413,7.413,0,0,1,1.523-.311,18.765,18.765,0,0,1,2.119-.107h.171c.013.057.027.109.042.158l.027.087Z"/><path class="cls-10" d="M73.433,46.777q-.8.3-1.468.575v.009a5.2,5.2,0,0,1,.807.244q.426.165.426.412,0,.192-.282.333a2.614,2.614,0,0,1-.766.215,7.058,7.058,0,0,1-.78.075c-.267.012-.542.017-.825.017-.247,0-.517,0-.809,0l-.488,0q.024-.623.024-.857v-.323q0-.447-.009-.748t-.015-.405h.806c0,.07-.008.241-.012.514s-.008.49-.008.649q0,.1,0,.357c0,.169,0,.363.012.584h.4c.176,0,.368,0,.576-.008a5.3,5.3,0,0,0,.6-.046,1.8,1.8,0,0,0,.544-.142c.132-.065.2-.141.2-.231a.269.269,0,0,0-.134-.234,1.391,1.391,0,0,0-.315-.146,4.631,4.631,0,0,0-.518-.127c-.2-.039-.37-.063-.493-.075l0-.016q1.362-.556,2.015-.819c.436-.174.689-.275.761-.3l.612.179Z"/><path class="cls-10" d="M79.741,46.564l-.554,0-1.223,0H77.08l-.7,0c0,.087-.007.2-.01.324s0,.3,0,.522h1.1l1.4,0,.806,0v.24l-.72,0q-.676,0-1.536,0H76.367c0,.116,0,.239.01.37s.01.262.01.393h1.274l1.4,0,.613,0v.242h-.635q-.587,0-1.519,0c-.367,0-.725,0-1.071,0h-.867q.015-.346.019-.67c0-.216,0-.39,0-.521q0-.358-.007-.7c0-.224-.011-.37-.017-.437.238,0,.528,0,.872,0h2.634l.649,0Z"/><path class="cls-10" d="M86.079,47.172q-.942.732-1.919,1.512h-.635q-.99-.782-1.911-1.488t-1.048-.8l.655-.126c.019.017.122.1.308.249s.451.358.8.629h2.891q.48-.378.773-.618c.2-.161.3-.247.313-.26l.76.14Zm-1.138.2H82.6l0,0c.151.118.342.271.573.457s.429.343.593.471h.019c.211-.168.412-.33.6-.484s.374-.3.546-.445Z"/><path class="cls-10" d="M92.769,48.645h-.857q-.794,0-1.975,0-.816,0-1.536,0H87.178v-.24l.71,0q.647,0,1.687,0c.01-.247.015-.431.015-.55v-.482c0-.2,0-.416-.007-.631s-.011-.357-.018-.427h.806c0,.07-.007.21-.012.421s-.007.419-.007.624,0,.38,0,.5.009.3.015.542h1.743l.655,0Z"/><path class="cls-10" d="M94.756,46.713c-.006.193-.01.466-.01.819,0,.14,0,.319.007.54s.011.413.018.579h-.806q.015-.346.019-.669c0-.215.005-.389.005-.521,0-.335,0-.591-.01-.77s-.011-.3-.014-.373h.806C94.767,46.388,94.762,46.519,94.756,46.713Z"/><path class="cls-10" d="M102.6,47.986a2.068,2.068,0,0,1-.724.41,5.065,5.065,0,0,1-.971.235,8.262,8.262,0,0,1-1.22.084,8.121,8.121,0,0,1-1.234-.09,4.827,4.827,0,0,1-1.01-.253,2.047,2.047,0,0,1-.688-.4.662.662,0,0,1-.229-.488.7.7,0,0,1,.29-.543,2.336,2.336,0,0,1,.763-.4,5.24,5.24,0,0,1,.967-.221,8.4,8.4,0,0,1,1.141-.074,8.154,8.154,0,0,1,1.161.078,5.277,5.277,0,0,1,1.025.248,2.154,2.154,0,0,1,.7.389.633.633,0,0,1,.024,1.021Zm-.818-.961a1.874,1.874,0,0,0-.6-.32,3.849,3.849,0,0,0-.687-.163,5.474,5.474,0,0,0-.814-.057,5.38,5.38,0,0,0-.816.059,3.815,3.815,0,0,0-.66.154,1.823,1.823,0,0,0-.628.336.549.549,0,0,0,0,.878,1.716,1.716,0,0,0,.609.345,3.609,3.609,0,0,0,.686.166,5.523,5.523,0,0,0,.819.057,5.43,5.43,0,0,0,.814-.056,3.683,3.683,0,0,0,.657-.157,1.627,1.627,0,0,0,.648-.366.643.643,0,0,0,.213-.445A.555.555,0,0,0,101.777,47.025Z"/><path class="cls-10" d="M109.478,48.651q0-.306.019-.941t.02-.9l-.01,0q-1.245.548-2.654,1.184l-1.5.677-.742-.125c.01-.235.016-.457.02-.666s0-.378,0-.505c0-.317,0-.564-.01-.742s-.011-.281-.015-.31h.762c0,.07-.011.331-.022.785s-.017.835-.017,1.147h.01l1.482-.66q1.281-.573,2.756-1.283l.649.113c0,.013,0,.116-.009.311s-.01.456-.01.786c0,.1,0,.273.007.507s.011.443.017.626Z"/><path class="cls-10" d="M115.544,47.279a2.894,2.894,0,0,1-.734.236q-.318.066-.647.122c-.22.039-.4.072-.53.1a2.224,2.224,0,0,0-.54.163c-.1.052-.144.108-.144.164s.046.12.137.168a1.3,1.3,0,0,0,.332.111,3.975,3.975,0,0,0,.51.067c.194.015.382.022.564.022q.459,0,.772-.011l.356-.012-.068.253-.355.008q-.311.006-.613.006-.553,0-1.005-.042a4.8,4.8,0,0,1-.766-.125,1.987,1.987,0,0,1-.5-.2.333.333,0,0,1-.193-.277q0-.157.213-.285a2.473,2.473,0,0,1,.71-.236q.292-.065.659-.126c.244-.04.443-.077.6-.109a2.1,2.1,0,0,0,.51-.157c.1-.053.154-.119.154-.2s-.051-.134-.154-.181a1.845,1.845,0,0,0-.442-.122,5.762,5.762,0,0,0-.63-.063q-.409-.024-.669-.024c-.283,0-.528,0-.737.009l-.381.013.039-.25.389-.009q.334-.007.648-.007c.384,0,.735.013,1.051.039a6.953,6.953,0,0,1,.841.116,2.237,2.237,0,0,1,.638.218q.237.135.237.315C115.791,47.089,115.709,47.19,115.544,47.279Z"/></g><ellipse class="cls-11" cx="16.245" cy="47.951" rx="4.361" ry="0.43"/></g></g></svg>