<svg xmlns="http://www.w3.org/2000/svg" viewBox="0 0 116.421 53.105"><defs><style>.cls-1{fill:#fff;}</style></defs><title>valueMyHorse</title><g id="Layer_2" data-name="Layer 2"><g id="Layer_1-2" data-name="Layer 1"><g id="Layer_2-2" data-name="Layer 2"><g id="Layer_1-2-2" data-name="Layer 1-2"><path d="M16.924,40.426c-.139-1.666-.279-3.333-.418-5.069l-1.9,3.681-.152-.05c.12-.976-.159-1.926.3-2.877q2.015-4.327,3.89-8.712a20.89,20.89,0,0,0,1.571-5.278,5.926,5.926,0,0,0-.633-4.112c-.184-.3-.044-.406.26-.431a2.375,2.375,0,0,1,2.61,2.115,2.294,2.294,0,0,1,.013.3,10.561,10.561,0,0,1-.83,3.8c-1.172,3.3-2.674,6.463-4.157,9.631a4.72,4.72,0,0,0-.367,1.7,21.01,21.01,0,0,0,.057,2.534A7.415,7.415,0,0,1,16.924,40.426Z"/><path d="M54.213,35.56h-1.9a3.084,3.084,0,0,0,.145-.83c-.291-2.275-.633-4.55-.925-6.824a1.891,1.891,0,0,0-.1-.285l-3.485,8.066c-1.2-2.744-2.325-5.342-3.5-7.959h-.095c-.1.742-.209,1.477-.3,2.212-.209,1.527-.424,3.054-.633,4.581-.045.355-.247.8.45,1.026H42.383c.469-.076.526-.437.576-.823l1.052-7.6c.083-.634-.2-1.007-.906-1.362h1.6c.114,0,.253.215.317.361,1.039,2.363,2.059,4.733,3.085,7.1.057.133.127.266.222.475.558-1.267,1.084-2.5,1.6-3.719s1.122-2.573,1.667-3.865c.114-.273.24-.412.557-.381s.729,0,1.134.038c-.893.229-.773.875-.684,1.508q.513,3.657,1.02,7.312C53.68,35.028,53.725,35.427,54.213,35.56Z"/><path d="M62.728,35.566H60.39c.539-.12.6-.507.6-.969V26.8c0-.45,0-.9-.6-1h2.344c-.583.115-.633.545-.633,1v3.567h5.341a1.749,1.749,0,0,0,.038-.279V26.7c0-.412-.044-.805-.595-.875h2.344c-.526.045-.583.418-.583.849v8.022c0,.431.076.786.589.868H66.91a.635.635,0,0,0,.584-.68V30.732H62.126v4.023a.7.7,0,0,0,.581.808Z"/><path d="M25.738,13.18a32,32,0,0,1-1.61,6.489c.254-1.7.5-3.3.729-4.892a19.729,19.729,0,0,0-.684-9.048c-.1-.3-.222-.583-.3-.881a10.339,10.339,0,0,1,1.553,3.574A2.566,2.566,0,0,1,25.529,9a10.877,10.877,0,0,0,1.349,4.276,32.613,32.613,0,0,1,2.427,7.484,22.881,22.881,0,0,1-.374,9.016,8.341,8.341,0,0,1-.279,1.007C29.489,24.636,28.836,18.718,25.738,13.18Z"/><path d="M16.816,40.768a2.05,2.05,0,0,1-.944,1.825,4.74,4.74,0,0,0-1.121,1.153,1.269,1.269,0,0,1-1.134.634l-2.4-.152a1.331,1.331,0,0,1-1.083-.729,1.446,1.446,0,0,0-.38-.494,1.9,1.9,0,0,1-.83-1.438c-.064-.368-.2-.723-.279-1.1a1.235,1.235,0,0,1,0-.633,15.538,15.538,0,0,0,.634-4.968,12.8,12.8,0,0,0-.412-4.245,4.766,4.766,0,0,0-.634-1.47,8.145,8.145,0,0,1-1.616-4.809.762.762,0,0,0-.19-.368A12.466,12.466,0,0,1,5.069,22.26a2.272,2.272,0,0,1-.127-1.425,8,8,0,0,1,.634-1.863,7.1,7.1,0,0,1,.779-1.084l.108.057a11.39,11.39,0,0,1-.412,1.863,3.1,3.1,0,0,0,.285,2.642c.5,1.058.868,2.18,1.267,3.282a33.754,33.754,0,0,1,1.705,5.817c.19,1.128.418,2.256.513,3.39a7.963,7.963,0,0,1-.184,1.971,17.207,17.207,0,0,0-.6,3.415,4.434,4.434,0,0,0,1.5,3.136,2.393,2.393,0,0,0,1.267.444,10.416,10.416,0,0,0,1.54,0,1.611,1.611,0,0,0,1.445-.634c.31-.342.7-.634,1.02-.944a7.683,7.683,0,0,0,.76-.982A2.882,2.882,0,0,0,16.816,40.768Z"/><path d="M27.7,36.162c-.317,3.852-1.679,7.166-4.93,9.5-1.552,1.1-3.168,2.135-4.745,3.168a12.725,12.725,0,0,0-4.569,4.271,5.974,5.974,0,0,1,.2-.6,7.492,7.492,0,0,1,2.275-2.9c1.8-1.407,3.624-2.776,5.411-4.195a17.957,17.957,0,0,0,5.214-6.247c.381-.8.634-1.654.976-2.478C27.6,36.5,27.645,36.333,27.7,36.162Z"/><path d="M0,21.037a5.756,5.756,0,0,1,1.692-2.756c1.267-1.1,2.6-2.142,3.947-3.168a31.785,31.785,0,0,0,5.24-4.651A15.767,15.767,0,0,0,14.047,4.57c0-.051.045-.1.171-.134-.126.691-.228,1.382-.38,2.06a11.694,11.694,0,0,1-5.069,7.451Q6.7,15.329,4.606,16.691C2.832,17.863,1.033,19.035,0,21.037Z"/><path d="M35.217,28.742H36.44a2.636,2.636,0,0,0-.2.665V34.85a2.451,2.451,0,0,0,.215.71H35.426v-.951c-.152.121-.254.191-.342.273a3,3,0,0,1-2.668.684,1.9,1.9,0,0,1-1.546-1.989V29.452a3.251,3.251,0,0,0-.165-.672H31.9a2.561,2.561,0,0,0-.2.634c0,1.267-.044,2.477,0,3.713a2.717,2.717,0,0,0,.406,1.444c.823,1.1,2.452.748,3.25-.272a.64.64,0,0,0,.057-.342V29.464A3.355,3.355,0,0,0,35.217,28.742Z"/><path d="M81.16,32.094c.52.741,1,1.451,1.5,2.148.6.83,1.267,1.438,2.49.824a1.9,1.9,0,0,1-2.686.088,12.706,12.706,0,0,1-1.6-2.211c-.4-.716-.932-.71-1.616-.634v2.719c0,.171.2.342.291.494H78.163a2.659,2.659,0,0,0,.241-.741V29.433a2.515,2.515,0,0,0-.171-.672c.913,0,1.964-.051,3,0a1.18,1.18,0,0,1,1.059.989,1.9,1.9,0,0,1-.558,1.926C81.553,31.8,81.376,31.923,81.16,32.094Zm-1.9-3.13v3.168c.83,0,1.66.127,2.148-.672a1.671,1.671,0,0,0-.1-1.843c-.488-.767-1.248-.691-2.065-.653Z"/><path d="M73.5,35.687a3.169,3.169,0,0,1-3.168-4.208,3.7,3.7,0,0,1,3.979-2.864,3.159,3.159,0,0,1,2.908,4.024A3.675,3.675,0,0,1,73.5,35.687Zm.488-.374a2.846,2.846,0,0,0,2.859-2.831c0-.032,0-.064,0-.1a3.656,3.656,0,0,0-3-3.339,2.674,2.674,0,0,0-3.091,2.179,2.624,2.624,0,0,0-.039.451,3.6,3.6,0,0,0,3.251,3.637Z"/><path d="M94.365,29.572c-.139-.633-.634-.633-1.1-.633h-1.9V31.9H93.96v.411h-2.6v2.535a.494.494,0,0,0,.491.5.489.489,0,0,0,.054,0h2.129c.38,0,.456-.1.671-.7v.944H90.24a2.117,2.117,0,0,0,.266-.684V29.547a3.782,3.782,0,0,0-.183-.773h4Z"/><path d="M41.775,29.56c-.121-.634-.59-.6-1.059-.59h-1.9v2.972H41.4v.367H38.809v2.535a.488.488,0,0,0,.5.48.432.432,0,0,0,.062,0c.7,0,1.394.038,2.078,0,.254,0,.488-.272.71-.405v.633H37.719a2.1,2.1,0,0,0,.235-.7V29.464a3.162,3.162,0,0,0-.184-.709h4.011Z"/><path d="M21.594,28.615l1.128,2.8c.437,1.109.868,2.217,1.33,3.314a5.231,5.231,0,0,0,.52.836H23.305a2.064,2.064,0,0,0-.038-.526c-.292-.76-.634-1.514-.894-2.275a.412.412,0,0,0-.469-.31c-.545,0-1.2-.159-1.6.095s-.457.906-.634,1.388c-.158.373-.317.754-.444,1.14a2,2,0,0,0-.038.494h-.7a4.662,4.662,0,0,0,.52-.792c.773-1.9,1.527-3.8,2.281-5.7.063-.152.133-.3.2-.45Zm.57,3.612-.912-2.281-.906,2.281Z"/><path d="M54.555,28.748h1.267a1.973,1.973,0,0,0,.127.526c.418.723.861,1.426,1.267,2.136a7.728,7.728,0,0,0,1.635-2.649h.709a8.114,8.114,0,0,0-.538.634,8.85,8.85,0,0,0-1.5,2.357,11.705,11.705,0,0,0-.076,2.794,1.453,1.453,0,0,0,0,.406c.076.215.19.418.279.633H56.272c.424-.126.361-.481.355-.8a10.728,10.728,0,0,0-.07-2.75A9.753,9.753,0,0,0,55.2,29.693,9.23,9.23,0,0,0,54.555,28.748Z"/><path d="M103.679,34.1V35.56H99.206a2,2,0,0,0,.241-.634V29.4a2.282,2.282,0,0,0-.209-.634h1.229a3.421,3.421,0,0,0-.184.8v4.53c0,.925.247,1.191,1.16,1.267h1.039c.741-.044.938-.228,1.083-.95a1.174,1.174,0,0,1,.076-.292Z"/><path d="M108.85,35.566h-4.48a2.4,2.4,0,0,0,.247-.716V29.5a3.026,3.026,0,0,0-.2-.747h1.229a2.128,2.128,0,0,0-.2.633V34.28c0,.716.3,1.026,1,1.064a10.064,10.064,0,0,0,1.178,0c.76-.044.97-.247,1.1-.988a.534.534,0,0,1,.126-.272Z"/><path d="M25.231,28.755H26.5a2.224,2.224,0,0,0-.215.633V34.2c0,.792.31,1.07,1.115,1.108h1.039c.792-.05.963-.209,1.14-.963a2.28,2.28,0,0,1,.114-.418v1.629H25.18a2.046,2.046,0,0,0,.247-.634V29.344A2.183,2.183,0,0,0,25.231,28.755Z"/><path d="M88.973,29.775a2,2,0,0,0-.272-.425,1.725,1.725,0,0,0-1.806-.38,1.266,1.266,0,0,0-.906,1.172,1.077,1.077,0,0,0,.817,1.16c.5.2,1.026.348,1.527.57a1.9,1.9,0,0,1,.532,3.232,2.028,2.028,0,0,1-1.1.431c-.761.069-1.534,0-2.326,0v-1.9c.311,1.457.894,1.863,2.376,1.666a1.578,1.578,0,0,0,.476-.133,1.318,1.318,0,0,0,.842-1.14,1.121,1.121,0,0,0-.7-1.16c-.583-.279-1.2-.482-1.793-.741a1.686,1.686,0,0,1-1.027-1.584,1.826,1.826,0,0,1,1.748-1.9h.052a4.377,4.377,0,0,1,.767.044c.747.114.811.19.918,1Z"/><path d="M116.421,34.565a1.265,1.265,0,0,1-1.077.944,9.474,9.474,0,0,1-3.111.089,3.314,3.314,0,0,1-2.534-4.524,3.978,3.978,0,0,1,5.208-2.224c.634.209.634.209.76.95l-.373-.3a3.249,3.249,0,0,0-4.568.514,3.124,3.124,0,0,0-.191.265,3.259,3.259,0,0,0,.076,3.168,3.694,3.694,0,0,0,5.582,1.318Z"/><path class="cls-1" d="M6.057,11.311a1.727,1.727,0,0,1-.633,0A2.5,2.5,0,0,1,3.77,8.777a4.178,4.178,0,0,0-.893-2.56,5.13,5.13,0,0,1-.558-.969c-.127-.311.076-.514.368-.393a14.615,14.615,0,0,1,1.748.874c.108.07.108.33.178.551L3.384,5.7c0,.1-.038.121,0,.127A6.491,6.491,0,0,1,4.435,9.068a2.461,2.461,0,0,0,1.6,2.066Z"/><path d="M16.005,12.5c-1.223-.722-1.489-1.5-.969-2.648.165-.355.418-.672.557-1.033a3.963,3.963,0,0,0,.3-1.267c0-.779-.057-1.565-.07-2.345a1.894,1.894,0,0,1,.139-.544,2.161,2.161,0,0,1,.513.215,5.356,5.356,0,0,1,1.832,4.556,14.888,14.888,0,0,0-.571-1.952,17.473,17.473,0,0,0-1.089-2.027c-.076-.127-.286-.178-.431-.267a2.013,2.013,0,0,0-.114.457c0,.855.031,1.71,0,2.566a1.344,1.344,0,0,1-.133.513,15.922,15.922,0,0,0-.773,1.73,1.674,1.674,0,0,0,.126.982A7.76,7.76,0,0,0,16.005,12.5Z"/><path d="M25.288,4.43a22.947,22.947,0,0,0-1.844-2.281c-1.451-1.407-3.117-2-5.069-.887A2.535,2.535,0,0,1,21.619.229a6.691,6.691,0,0,1,3.092,3A12.544,12.544,0,0,1,25.288,4.43Z"/><path d="M14.782,41.605a2.281,2.281,0,0,0-2.053-1.515L14,37.765Z"/><path d="M21.252,29.946l.925,2.281"/></g></g></g></g></svg>